<?xml version="1.0" standalone="no"?><!DOCTYPE svg PUBLIC "-//W3C//DTD SVG 1.1//EN" "http://www.w3.org/Graphics/SVG/1.1/DTD/svg11.dtd"><svg class="icon" height="512" viewBox="0 0 1152 1024" version="1.1" xmlns="http://www.w3.org/2000/svg"><path d="M1120 896l-255.968 0 0-736 255.968 0c17.696 0 32 14.304 32 32l0 672c0 17.664-14.304 32-32 32zM992.032 768l32 0 0-32-32 0 0 32zM992.032 704l32 0 0-32-32 0 0 32zM992.032 640l32 0 0-32-32 0 0 32zM928.032 768l31.968 0 0-32-31.968 0 0 32zM928.032 704l31.968 0 0-32-31.968 0 0 32zM928.032 640l31.968 0 0-32-31.968 0 0 32zM1088.032 288l-160 0 0 96 160 0 0-96zM1088.032 608l-32 0 0 32 32 0 0-32zM1088.032 672l-32 0 0 32 32 0 0-32zM1088.032 736l-32 0 0 32 32 0 0-32zM0 864l0-672c0-17.696 14.336-32 32.032-32l800 0 0 736-800 0c-17.696 0-32.032-14.336-32.032-32zM769.248 560.288c17.696 0 32-14.336 32-32 0-17.696-14.304-32-32-32-17.664 0-32 14.304-32 32 0 17.664 14.336 32 32 32zM128 736c0 17.664 14.336 32 32.032 32l511.968 0c17.696 0 32-14.336 32-32l0-416c0-17.696-14.304-32-32-32l-511.968 0c-17.696 0-32.032 14.304-32.032 32l0 416z" /></svg>