<?xml version="1.0" standalone="no"?><!DOCTYPE svg PUBLIC "-//W3C//DTD SVG 1.1//EN" "http://www.w3.org/Graphics/SVG/1.1/DTD/svg11.dtd"><svg class="icon" height="512" viewBox="0 0 1024 1024" version="1.1" xmlns="http://www.w3.org/2000/svg"><path d="M818.941074 65.519909H205.133531c-40.348526 0-73.117989 32.909897-73.117988 73.397394v765.957851c0 40.41728 32.770926 73.325714 73.117988 73.325715h613.809006c40.276846 0 73.046309-32.908434 73.046309-73.325715V138.917303c-0.001463-40.487497-32.770926-73.397394-73.047772-73.397394z m37.12 839.353782c0 20.629211-16.631223 37.399406-37.12 37.399406H205.133531c-20.493166 0-37.19168-16.771657-37.19168-37.399406V138.917303c0-20.66432 16.70144-37.469623 37.19168-37.469623h613.809006c20.488777 0 37.12 16.805303 37.12 37.469623v765.956388z" fill="" /><path d="M301.173029 227.234377m-41.221852 0a41.221851 41.221851 0 1 0 82.443703 0 41.221851 41.221851 0 1 0-82.443703 0Z" fill="" /><path d="M743.517623 227.234377m-41.221852 0a41.221851 41.221851 0 1 0 82.443703 0 41.221851 41.221851 0 1 0-82.443703 0Z" fill="" /><path d="M512.732891 822.893714m-41.223314 0a41.223314 41.223314 0 1 0 82.446629 0 41.223314 41.223314 0 1 0-82.446629 0Z" fill="" /><path d="M510.099749 468.430263m-59.061395 0a59.061394 59.061394 0 1 0 118.122789 0 59.061394 59.061394 0 1 0-118.122789 0Z" fill="" /><path d="M510.099749 281.14944c-109.069166 0-197.485714 88.416549-197.485715 197.485714 0 109.067703 88.416549 197.485714 197.485715 197.485715s197.485714-88.416549 197.485714-197.485715-88.416549-197.485714-197.485714-197.485714z m-0.001463 354.378606c-86.647954 0-156.894354-70.243474-156.894355-156.892892 0-86.65088 70.2464-156.895817 156.894355-156.895817 86.652343 0 156.895817 70.244937 156.895817 156.895817S596.752091 635.528046 510.098286 635.528046z" fill="" /></svg>