<?xml version="1.0" standalone="no"?><!DOCTYPE svg PUBLIC "-//W3C//DTD SVG 1.1//EN" "http://www.w3.org/Graphics/SVG/1.1/DTD/svg11.dtd"><svg class="icon" height="512" viewBox="0 0 1024 1024" version="1.1" xmlns="http://www.w3.org/2000/svg"><path d="M102.422733 204.8c-33.66912 0-61.44 27.72992-61.44 61.44v311.05024a20.48 20.48 0 0 0 0.63488 3.82976 20.48 20.48 0 0 0 0 0.63488 215.4496 215.4496 0 0 0-22.40512 46.73536C6.473933 665.94816 1.087693 709.07904 0.022733 757.76v20.48a20.48 20.48 0 0 0 0 1.92512V1024h143.36v-81.92c0-17.05984 4.17792-25.94816 9.60512-31.35488C158.394573 905.29792 167.282893 901.12 184.342733 901.12h655.36c17.05984 0 25.94816 4.17792 31.35488 9.60512 5.4272 5.40672 9.60512 14.29504 9.60512 31.35488v81.92h143.36V781.43488A20.48 20.48 0 0 0 1024.022733 778.24c0-7.0656 0.14336-13.63968 0-20.48-1.06496-48.68096-6.43072-91.79136-19.21024-129.29024-5.65248-16.60928-13.312-31.744-22.38464-46.08a20.48 20.48 0 0 0 0.63488-5.12V266.24c0-33.71008-27.77088-61.44-61.44-61.44H102.422733z m0 40.96h819.2c11.55072 0 20.48 8.92928 20.48 20.48v269.43488a216.30976 216.30976 0 0 0-15.99488-12.14464c-13.68064-9.4208-28.5696-18.2272-45.44512-25.6V409.6c0-14.41792-9.44128-25.6-19.84512-32.64512-10.40384-7.02464-23.1424-11.93984-39.03488-15.99488C789.977293 352.82944 745.208013 348.16 686.102733 348.16s-103.87456 4.66944-135.68 12.8c-15.5648 3.97312-28.13952 8.6016-38.4 15.36-10.26048-6.7584-22.85568-11.38688-38.4-15.36C441.817293 352.82944 397.048013 348.16 337.942733 348.16s-103.87456 4.66944-135.68 12.8c-15.91296 4.05504-28.63104 8.97024-39.03488 15.99488S143.382733 395.18208 143.382733 409.6v88.33024c-16.87552 7.3728-31.76448 16.1792-45.44512 25.6-5.61152 3.85024-10.93632 7.92576-15.99488 12.14464V266.24c0-11.55072 8.92928-20.48 20.48-20.48z m235.52 143.36c56.9344 0 99.2256 4.83328 125.44 11.53024 13.1072 3.33824 22.1184 7.45472 26.23488 10.24 1.6384 1.10592 1.76128 1.24928 1.92512 1.26976V450.56c-134.656 0.88064-234.31168 10.99776-307.2 33.28v-71.68c0.16384 0 0.28672-0.16384 1.92512-1.29024 4.096-2.7648 13.12768-6.88128 26.23488-10.24 26.2144-6.67648 68.48512-11.50976 125.44-11.50976z m348.16 0c56.9344 0 99.2256 4.83328 125.44 11.53024 13.1072 3.33824 22.1184 7.45472 26.23488 10.24 1.6384 1.10592 1.76128 1.24928 1.92512 1.26976v71.68c-72.88832-22.28224-172.544-32.39936-307.2-33.28v-38.4c0.16384 0 0.28672-0.16384 1.92512-1.29024 4.096-2.7648 13.12768-6.88128 26.23488-10.24 26.2144-6.67648 68.48512-11.50976 125.44-11.50976z m-177.93024 102.4a20.48 20.48 0 0 0 6.41024 0h1.92512c204.94336 0.32768 323.3792 21.74976 386.56 65.29024 31.82592 21.9136 51.11808 49.152 63.34464 85.11488 10.6496 31.3344 14.97088 70.00064 16.01536 115.83488H41.597133c1.04448-45.83424 5.34528-84.52096 15.99488-115.83488 12.24704-35.96288 31.5392-63.20128 63.36512-85.13536 63.24224-43.56096 181.8624-64.98304 387.21536-65.26976zM40.982733 798.72h942.08v184.32h-61.44v-40.96c0-23.90016-6.06208-45.73184-21.11488-60.80512C885.434573 866.22208 863.602893 860.16 839.702733 860.16H184.342733c-23.90016 0-45.73184 6.06208-60.80512 21.11488C108.484813 896.34816 102.422733 918.17984 102.422733 942.08v40.96H40.982733v-184.32z" fill="white" /></svg>