<?xml version="1.0" standalone="no"?><!DOCTYPE svg PUBLIC "-//W3C//DTD SVG 1.1//EN" "http://www.w3.org/Graphics/SVG/1.1/DTD/svg11.dtd"><svg class="icon" height="512" viewBox="0 0 1560 1024" version="1.1" xmlns="http://www.w3.org/2000/svg"><path fill = "white" d="M258.458141 66.00108a22.123267 22.123267 0 0 0-22.138631 22.138631v177.585309h-73.882494V88.139711a22.123267 22.123267 0 1 0-44.277261 0v177.585309H44.277261V88.139711a22.123267 22.123267 0 1 0-44.277261 0v177.585309c19.419312 83.54606 54.401728 147.304087 96.77393 173.63692v503.288963a43.539819 43.539819 0 0 0 87.048911 0V439.36194c42.372202-26.332833 77.354618-90.09086 96.758567-173.63692V88.139711a22.123267 22.123267 0 0 0-22.123267-22.138631zM1475.63728 64.065294a64.019204 64.019204 0 1 0-128.038408 0v467.799556a63.942387 63.942387 0 0 0 38.40845 58.611295V924.921563c0 28.283982 20.064574 51.206145 44.814979 51.206145s44.814979-22.922163 44.814979-51.206145V544.985177c0-2.396687-0.337994-4.685831-0.614535-6.990338 0.199724-2.04333 0.614535-4.025206 0.614535-6.114625V64.065294zM780.213887 28.145712c-275.050591 0-497.973234 222.938006-497.973234 497.988598 0 274.943047 222.922643 497.881054 497.973234 497.881053 274.943047 0 497.896417-222.938006 497.896417-497.881053 0-275.050591-222.95337-497.988597-497.896417-497.988598z m-0.015363 935.414751c-241.650603 0-437.518334-195.867731-437.518334-437.45688 0-241.650603 195.867731-437.533697 437.518334-437.533698 241.58915 0 437.472244 195.883094 437.472244 437.533698-0.015363 241.58915-195.898458 437.456881-437.472244 437.45688zM780.18316 526.088219m-370.918082 0a370.918082 370.918082 0 1 0 741.836164 0 370.918082 370.918082 0 1 0-741.836164 0Z" /></svg>