<?xml version="1.0" standalone="no"?><!DOCTYPE svg PUBLIC "-//W3C//DTD SVG 1.1//EN" "http://www.w3.org/Graphics/SVG/1.1/DTD/svg11.dtd"><svg class="icon" height="512" viewBox="0 0 1024 1024" version="1.1" xmlns="http://www.w3.org/2000/svg"><path d="M509.43 306.896c8.786 0 17.439-5.427 22.019-13.779 4.625-8.468 4.267-18.413-1.002-26.644-19.118-29.853 3.122-63.186 26.67-98.484 20.222-30.31 41.118-61.66 34.495-92.653-3.823-17.995-16.215-33.354-37.802-46.949-14.289-8.945-33.871-0.721-38.375 14.919-2.963 10.289 1.039 20.375 10.466 26.303 8.511 5.346 13.295 11.313 14.613 18.261 3.244 16.974-13.771 40.301-27.488 59.021-4.784 6.542-9.305 12.769-12.908 18.455-31.173 49.349-34.337 92.031-9.69 130.51 4.483 6.993 11.413 11.018 18.998 11.038v0zM509.43 306.896zM649.573 306.896c8.791 0 17.461-5.427 22.045-13.779 4.625-8.468 4.263-18.413-1.005-26.644-19.118-29.853 3.103-63.186 26.652-98.484 20.22-30.31 41.118-61.66 34.492-92.653-3.82-17.995-16.215-33.354-37.795-46.949-14.218-8.945-33.897-0.721-38.402 14.939-2.946 10.289 1.065 20.358 10.473 26.286 8.529 5.346 13.295 11.313 14.614 18.261 3.244 16.974-13.778 40.301-27.468 59.038-4.784 6.544-9.33 12.777-12.937 18.459-31.173 49.349-34.329 92.038-9.689 130.518 4.511 6.965 11.43 10.99 19.022 11.010v0zM649.573 306.896zM389.307 306.896c8.787 0 17.439-5.427 22.020-13.779 4.625-8.468 4.245-18.413-1.003-26.644-19.118-29.853 3.127-63.186 26.67-98.484 20.222-30.31 41.125-61.66 34.495-92.653-3.843-17.995-16.215-33.354-37.819-46.949-14.212-8.945-33.874-0.721-38.375 14.919-2.964 10.289 1.039 20.375 10.465 26.303 8.511 5.346 13.295 11.313 14.614 18.261 3.244 16.974-13.772 40.301-27.488 59.021-4.784 6.542-9.306 12.769-12.91 18.455-31.173 49.349-34.337 92.031-9.692 130.51 4.505 6.993 11.433 11.018 19.019 11.038v0zM389.307 306.896zM924.855 527.879c-0.062-0.601-0.202-1.199-0.284-1.804-42.823 67.294-210.473 116.203-417.004 116.203-206.535 0-374.205-48.908-417.010-116.203-0.159 1.205-0.477 2.383-0.539 3.586-45.946 10.051-66.128 31.233-64.868 67.391 1.082 30.586 40.141 57.077 91.036 72.114 31.93 79.419 91.054 112.639 167.188 155.225l-109.591 160.21c-6.542 15.237 0.522 32.894 15.775 39.443 3.843 1.637 7.87 2.42 11.81 2.42 11.658 0 22.729-6.805 27.612-18.195l108.753-158.273c51.933 20.119 109.311 31.276 169.834 31.276 62.203 0 121.022-11.877 174.080-33.036l109.511 160.033c4.881 11.39 15.978 18.195 27.629 18.195 3.943 0 7.949-0.782 11.81-2.42 15.257-6.549 22.303-24.206 15.775-39.443l-110.531-162.374c73.355-42.122 130.455-73.586 162.046-150.379 55.642-14.419 99.786-42.224 100.946-74.78 1.342-38.496-21.58-60.002-73.978-69.191v0zM75.386 602.7c-0.86-16.443 1.682-26.030 16.277-32.219 2.041 20.225 6.004 39.643 11.107 58.545-16.435-6.429-26.804-15.116-27.385-26.327v0zM948.598 602.7c-0.698 13.312-15.172 23.004-37.154 29.667 5.822-20.821 10.111-42.347 12.171-64.769 22.245 5.987 25.983 15.837 24.983 35.102v0zM948.598 602.7zM507.568 622.258c244.013 0 407.92-67.29 407.92-130.133s-163.933-130.132-407.92-130.132c-244.013 0-407.92 67.29-407.92 130.132 0.001 62.844 163.908 130.133 407.92 130.133v0zM513.011 397.027c175.559 0 353.303 30.953 353.303 90.094 0 59.138-177.745 90.090-353.303 90.090-175.578 0-353.303-30.951-353.303-90.090 0-59.141 177.728-90.094 353.303-90.094v0zM513.011 397.027zM607.209 420.17c-20.562-1.362-42.199-2.321-65.005-2.763l-1.703 139.442c22.825-0.421 44.51-1.325 65.087-2.663l1.62-134.017zM607.209 420.17zM260.335 530.86l1.399-87.846c-52.775 13.533-82.006 30.129-82.006 44.106 0 13.854 28.727 30.271 80.606 43.74v0zM260.335 530.86zM722.345 433.906c-22.379-4.107-47.405-7.685-75.111-10.474l-1.565 127.51c27.629-2.723 52.617-6.242 74.978-10.314l1.697-106.723zM722.345 433.906zM382.018 423.133c-29.686 2.901-56.417 6.684-80.080 11.090l-1.661 105.469c23.644 4.464 50.412 8.308 80.16 11.252l1.582-127.811zM382.018 423.133zM846.292 487.121c0-14.175-29.948-31.013-84.044-44.651l-1.423 89.673c55.019-13.709 85.468-30.733 85.468-45.023v0zM846.292 487.121zM502.143 417.189c-28.311 0.202-55.001 1.18-80.062 2.781l-1.682 134.219c25.044 1.644 51.732 2.622 80.038 2.86l1.705-139.859zM502.143 417.189z" /></svg>