<?xml version="1.0" standalone="no"?><!DOCTYPE svg PUBLIC "-//W3C//DTD SVG 1.1//EN" "http://www.w3.org/Graphics/SVG/1.1/DTD/svg11.dtd"><svg class="icon" height="512" viewBox="0 0 1038 1024" version="1.1" xmlns="http://www.w3.org/2000/svg"><path d="M993.964972 501.455328c25.108419-8.902469 43.215868-32.476725 43.215868-60.653471 0-35.804347-29.019456-64.823802-64.823802-64.823802L64.823802 375.978054c-35.804347 0-64.823802 29.019456-64.823802 64.823802 0 35.069677 27.895843 63.440895 62.684617 64.607723L43.215868 505.40958l0 475.374552L0 980.784132l0 43.215868 1037.18084 0 0-43.215868-43.215868 0L993.964972 501.455328zM172.863473 980.784132 86.431737 980.784132 86.431737 505.625659l86.431737 0L172.863473 980.784132zM302.511078 980.784132l-86.431737 0L216.079342 505.625659l86.431737 0L302.511078 980.784132zM432.158683 980.784132l-86.431737 0L345.726947 505.625659l86.431737 0L432.158683 980.784132zM561.806288 980.784132l-86.431737 0L475.374552 505.625659l86.431737 0L561.806288 980.784132zM691.453893 980.784132l-86.431737 0L605.022157 505.625659l86.431737 0L691.453893 980.784132zM821.101498 980.784132l-86.431737 0L734.669762 505.625659l86.431737 0L821.101498 980.784132zM950.749103 980.784132l-86.431737 0L864.317367 505.625659l86.431737 0L950.749103 980.784132zM64.823802 462.409791c-11.92758 0-21.607934-9.680355-21.607934-21.607934 0-11.92758 9.680355-21.607934 21.607934-21.607934l907.533235 0c11.92758 0 21.607934 9.680355 21.607934 21.607934 0 11.92758-9.680355 21.607934-21.607934 21.607934L64.823802 462.409791zM711.117113 255.686685c10.976831 30.056636-33.168179 55.878118-33.557122 56.094197-10.371808 5.877358-14.045157 19.058198-8.167799 29.451614 3.97586 7.022579 11.279342 10.976831 18.820511 10.976831 3.608525 0 7.260266-0.907533 10.609496-2.787424 28.479257-16.119519 71.65191-57.10977 52.788183-108.752733-6.828107-18.129057-18.518-37.468158-29.818949-56.202237-16.162735-26.750622-34.421439-57.023338-33.729985-77.464444 5.164296-26.491327 17.956193-50.562566 37.014391-69.707196 8.448702-8.448702 8.405486-22.126525-0.043216-30.553619-8.47031-8.427094-22.126525-8.383878-30.553619 0.064824C668.960034 32.433509 651.95459 64.823802 645.342562 100.433678c-0.151256 0.799494-0.259295 1.620595-0.324119 2.420089-2.355265 34.075712 19.058198 69.577548 39.801815 103.934163C695.581009 224.614476 705.758346 241.468664 711.117113 255.686685zM539.571724 255.686685c10.976831 30.056636-33.189787 55.878118-33.557122 56.115805-10.371808 5.877358-14.023549 19.058198-8.146191 29.451614 3.97586 7.022579 11.279342 10.955223 18.820511 10.955223 3.608525 0 7.260266-0.907533 10.631104-2.809031 28.457649-16.097911 71.630302-57.088162 52.788183-108.752733-6.828107-18.107449-18.496392-37.44655-29.797341-56.159021-16.184343-26.77223-34.464655-57.066554-33.751593-77.50766 5.164296-26.491327 17.934585-50.562566 37.014391-69.685588 8.427094-8.448702 8.427094-22.126525-0.043216-30.553619-8.47031-8.448702-22.148133-8.427094-30.553619 0.043216C497.371429 32.433509 480.365984 64.823802 473.797172 100.433678c-0.151256 0.799494-0.259295 1.598987-0.302511 2.420089-2.376873 34.09732 19.058198 69.620764 39.801815 103.977379C524.035619 224.657691 534.212956 241.490272 539.571724 255.686685zM368.652965 255.686685c10.976831 30.056636-33.168179 55.878118-33.557122 56.115805-10.393416 5.85575-14.045157 19.058198-8.167799 29.430006 3.97586 7.022579 11.279342 10.976831 18.820511 10.976831 3.608525 0 7.260266-0.907533 10.609496-2.787424 28.479257-16.119519 71.65191-57.10977 52.788183-108.752733-6.828107-18.129057-18.518-37.468158-29.797341-56.180629-16.162735-26.77223-34.443047-57.044946-33.729985-77.486052 5.164296-26.491327 17.956193-50.562566 37.014391-69.685588 8.427094-8.448702 8.405486-22.126525-0.043216-30.575227-8.47031-8.427094-22.126525-8.405486-30.575227 0.043216C326.452669 32.433509 309.468833 64.823802 302.878413 100.433678c-0.151256 0.799494-0.259295 1.620595-0.302511 2.420089-2.376873 34.075712 19.058198 69.599156 39.780207 103.955771C353.11686 224.636084 363.294197 241.490272 368.652965 255.686685z" /></svg>