<?xml version="1.0" standalone="no"?><!DOCTYPE svg PUBLIC "-//W3C//DTD SVG 1.1//EN" "http://www.w3.org/Graphics/SVG/1.1/DTD/svg11.dtd"><svg class="icon" height="512" viewBox="0 0 1024 1024" version="1.1" xmlns="http://www.w3.org/2000/svg"><path fill = "black" d="M202.069333 417.109333c67.584 0 122.197333-53.930667 122.197333-120.832 0-66.901333-54.613333-120.832-122.197333-120.832-67.584 0-122.197333 53.930667-122.197333 120.832C79.872 363.178667 134.485333 417.109333 202.069333 417.109333zM509.952 533.162667c78.506667 0 141.994667-62.805333 141.994667-139.264s-63.488-139.264-141.994667-139.264C432.128 253.952 368.64 316.074667 368.64 393.216S432.128 533.162667 509.952 533.162667zM818.517333 417.109333c67.584 0 122.197333-53.930667 122.197333-120.832 0-66.901333-54.613333-120.832-122.197333-120.832-67.584 0-122.197333 53.930667-122.197333 120.832C697.002667 363.178667 751.616 417.109333 818.517333 417.109333zM830.805333 470.357333l-24.576 0c-78.506667 0-145.408 49.152-171.349333 118.784 53.248 25.941333 95.573333 68.949333 120.832 122.197333L983.04 711.338667c17.066667 0 30.72-13.653333 30.72-30.72l0-27.989333C1013.76 552.277333 931.84 470.357333 830.805333 470.357333zM384.341333 586.410667c-26.624-67.584-92.842667-116.053333-169.984-116.053333l-24.576 0C88.746667 470.357333 6.826667 552.277333 6.826667 652.629333l0 27.989333c0 17.066667 13.653333 30.72 30.72 30.72l220.501333 0C283.306667 656.042667 328.362667 611.669333 384.341333 586.410667zM531.797333 594.602667l-42.325333 0c-113.322667 0-205.482667 92.16-205.482667 205.482667l0 36.864c0 20.48 16.384 36.864 36.864 36.864l380.928 0c20.48 0 36.864-16.384 36.864-36.864l0-36.864C737.28 686.762667 645.12 594.602667 531.797333 594.602667z" /></svg>