<?xml version="1.0" standalone="no"?><!DOCTYPE svg PUBLIC "-//W3C//DTD SVG 1.1//EN" "http://www.w3.org/Graphics/SVG/1.1/DTD/svg11.dtd"><svg class="icon" height="512" viewBox="0 0 1024 1024" version="1.1" xmlns="http://www.w3.org/2000/svg"><path d="M876.438 300.613h-371.895c54.992-53.127 109.984-105.324 164.976-157.52 14.913-14.913-7.457-37.283-23.301-23.301-59.652 57.788-120.237 115.577-179.889 172.432-28.894-37.283-58.721-75.498-87.615-112.78-13.050-16.778-35.419 6.524-23.301 23.301 25.166 32.622 51.264 65.245 76.429 97.867h-284.281c-30.758 0-54.992 25.166-54.992 54.992v469.762c0 30.758 25.166 54.992 54.992 54.992h10.253c0 10.253 0 21.438 0 31.691 0 20.505 32.622 21.438 32.622 0 0-10.253 0-21.438 0-31.691h642.195c0 10.253 0 21.438 0 31.691 0 20.505 32.622 21.438 32.622 0 0-10.253 0-21.438 0-31.691h10.253c30.758 0 54.992-25.166 54.992-54.992v-469.762c0.932-30.758-24.234-54.992-54.061-54.992zM898.809 825.367c0 12.117-10.253 22.37-22.37 22.37h-728.877c-12.117 0-22.37-10.253-22.37-22.37v-469.762c0-12.117 10.253-22.37 22.37-22.37h727.945c12.117 0 22.37 10.253 22.37 22.37v469.762zM681.636 385.431h-448.324c-30.758 0-54.992 25.166-54.992 54.992v314.107c0 30.758 25.166 54.992 54.992 54.992h448.324c30.758 0 54.992-25.166 54.992-54.992v-313.174c0-30.758-24.234-55.924-54.992-55.924zM704.005 754.53c0 12.117-10.253 22.37-22.37 22.37h-448.324c-12.117 0-22.37-10.253-22.37-22.37v-313.174c0-12.117 10.253-22.37 22.37-22.37h448.324c12.117 0 22.37 10.253 22.37 22.37v313.174zM797.213 450.676c0 17.503 14.188 31.691 31.691 31.691s31.691-14.188 31.691-31.691c0 0 0 0 0 0 0-17.503-14.188-31.691-31.691-31.691-17.503 0-31.691 14.188-31.691 31.691 0 0 0 0 0 0zM797.213 548.543c0 17.503 14.188 31.691 31.691 31.691s31.691-14.188 31.691-31.691c0 0 0 0 0 0 0-17.503-14.188-31.691-31.691-31.691-17.503 0-31.691 14.188-31.691 31.691 0 0 0 0 0 0zM353.549 719.111c-21.438 0-47.535 4.66-68.042-0.932-29.826-8.389-21.438-53.127-21.438-76.429 0-13.050-19.573-13.050-19.573 0 0 28.894-7.457 68.042 20.505 87.615 23.301 16.778 62.448 9.321 88.546 9.321 12.117 0 12.117-19.573 0-19.573z" /></svg>