<?xml version="1.0" standalone="no"?><!DOCTYPE svg PUBLIC "-//W3C//DTD SVG 1.1//EN" "http://www.w3.org/Graphics/SVG/1.1/DTD/svg11.dtd"><svg class="icon" height="512" viewBox="0 0 1280 1024" version="1.1" xmlns="http://www.w3.org/2000/svg"><path d="M15.36 319.616c-20.48 20.053333-20.48 52.906667 0 72.96 20.053333 20.053333 52.906667 20.053333 73.386667 0 303.786667-300.8 798.72-300.8 1102.506667 0 20.48 20.053333 53.333333 20.053333 73.386667 0 20.48-20.053333 20.48-52.906667 0-72.96C920.32-21.290667 359.68-21.290667 15.36 319.616zM162.133333 465.109333c-20.053333 20.48-20.053333 52.906667 0 72.96 20.48 20.053333 53.333333 20.053333 73.386667 0 223.146667-220.586667 585.813333-220.586667 808.96 0 20.053333 20.053333 52.906667 20.053333 73.386667 0 20.053333-20.053333 20.053333-52.48 0-72.96C854.186667 204.416 425.813333 204.416 162.133333 465.109333zM309.333333 611.029333c-20.48 20.053333-20.48 52.48 0 72.533333 20.053333 20.053333 52.906667 20.053333 73.386667 0 141.653333-140.373333 372.906667-140.373333 514.56 0 20.48 20.053333 53.333333 20.053333 73.386667 0 20.48-20.053333 20.48-52.48 0-72.533333C788.48 430.122667 491.52 430.122667 309.333333 611.029333zM450.56 779.989333l182.186667 180.053333 203.093333-201.386667C738.986667 684.416 570.453333 661.376 450.56 779.989333z" /></svg>